<svg width="24" height="24" viewBox="0 0 24 24" fill="none" xmlns="http://www.w3.org/2000/svg">
<path fill-rule="evenodd" clip-rule="evenodd" d="M12.3641 4.5663C13.5859 3.00769 15.2842 3 15.2842 3C15.2842 3 15.5368 4.46547 14.3232 5.87742C13.0272 7.38488 11.5544 7.13827 11.5544 7.13827C11.5544 7.13827 11.278 5.95282 12.3641 4.5666V4.5663Z" fill="white"/>
<path fill-rule="evenodd" clip-rule="evenodd" d="M11.7088 8.165C12.3374 8.165 13.5035 7.32877 15.0219 7.32877C17.6352 7.32877 18.6634 9.12897 18.6634 9.12897C18.6634 9.12897 16.6526 10.1243 16.6526 12.5392C16.6526 15.2635 19.1576 16.2023 19.1576 16.2023C19.1576 16.2023 17.4065 20.9737 15.0414 20.9737C13.955 20.9737 13.1107 20.2649 11.9659 20.2649C10.8211 20.2649 9.64213 21 8.8883 21C6.72851 21.0003 4 16.4744 4 12.8361C4 9.19786 6.30945 7.37874 8.47564 7.37874C9.88373 7.37874 10.9766 8.165 11.7088 8.165Z" fill="white"/>
</svg>
