<svg width="16" height="16" viewBox="0 0 16 16" fill="none" xmlns="http://www.w3.org/2000/svg">
<path d="M9.86204 2C10.093 2.00015 10.3168 2.08024 10.4954 2.22667L10.5687 2.29333L11.61 3.33333H13.3334C13.6698 3.33323 13.9938 3.46027 14.2404 3.689C14.4871 3.91772 14.6381 4.23123 14.6634 4.56667L14.6667 4.66667V12.6667C14.6668 13.0031 14.5398 13.327 14.311 13.5737C14.0823 13.8204 13.7688 13.9714 13.4334 13.9967L13.3334 14H2.66671C2.33032 14.0001 2.00633 13.8731 1.75968 13.6443C1.51302 13.4156 1.36194 13.1021 1.33671 12.7667L1.33337 12.6667V4.66667C1.33327 4.33028 1.46031 4.00629 1.68904 3.75963C1.91777 3.51298 2.23127 3.3619 2.56671 3.33667L2.66671 3.33333H4.39071L5.43071 2.29333C5.5941 2.12961 5.80921 2.0276 6.03937 2.00467L6.13804 2H9.86204ZM8.00004 5C7.11599 5 6.26814 5.35119 5.64302 5.97631C5.0179 6.60143 4.66671 7.44928 4.66671 8.33333C4.66671 9.21739 5.0179 10.0652 5.64302 10.6904C6.26814 11.3155 7.11599 11.6667 8.00004 11.6667C8.8841 11.6667 9.73194 11.3155 10.3571 10.6904C10.9822 10.0652 11.3334 9.21739 11.3334 8.33333C11.3334 7.44928 10.9822 6.60143 10.3571 5.97631C9.73194 5.35119 8.8841 5 8.00004 5ZM8.00004 6.33333C8.26268 6.33333 8.52276 6.38506 8.76541 6.48557C9.00806 6.58608 9.22854 6.7334 9.41425 6.91912C9.59997 7.10484 9.74729 7.32532 9.8478 7.56797C9.94831 7.81062 10 8.07069 10 8.33333C10 8.59598 9.94831 8.85605 9.8478 9.0987C9.74729 9.34135 9.59997 9.56183 9.41425 9.74755C9.22854 9.93326 9.00806 10.0806 8.76541 10.1811C8.52276 10.2816 8.26268 10.3333 8.00004 10.3333C7.46961 10.3333 6.9609 10.1226 6.58583 9.74755C6.21075 9.37247 6.00004 8.86377 6.00004 8.33333C6.00004 7.8029 6.21075 7.29419 6.58583 6.91912C6.9609 6.54405 7.46961 6.33333 8.00004 6.33333Z" fill="#7F838B"/>
</svg>
