<svg width="24" height="24" viewBox="0 0 24 24" fill="none" xmlns="http://www.w3.org/2000/svg">
<path d="M10.5624 15.5296L7.09082 12.0572L8.24773 10.9003L10.5624 13.2141L15.19 8.58569L16.3477 9.74342L10.5624 15.5296Z" fill="#3B3D41"/>
<path fill-rule="evenodd" clip-rule="evenodd" d="M3 12C3 7.02955 7.02955 3 12 3C16.9705 3 21 7.02955 21 12C21 16.9705 16.9705 21 12 21C7.02955 21 3 16.9705 3 12ZM12 19.3636C11.033 19.3636 10.0755 19.1732 9.18206 18.8031C8.28866 18.4331 7.4769 17.8907 6.79312 17.2069C6.10935 16.5231 5.56694 15.7113 5.19689 14.8179C4.82683 13.9245 4.63636 12.967 4.63636 12C4.63636 11.033 4.82683 10.0755 5.19689 9.18206C5.56694 8.28866 6.10935 7.4769 6.79312 6.79312C7.4769 6.10935 8.28866 5.56694 9.18206 5.19689C10.0755 4.82683 11.033 4.63636 12 4.63636C13.953 4.63636 15.8259 5.41217 17.2069 6.79312C18.5878 8.17407 19.3636 10.047 19.3636 12C19.3636 13.953 18.5878 15.8259 17.2069 17.2069C15.8259 18.5878 13.953 19.3636 12 19.3636Z" fill="#3B3D41"/>
</svg>
