<svg width="18" height="21" viewBox="0 0 18 21" fill="none" xmlns="http://www.w3.org/2000/svg">
<path d="M7.2 0C6.7302 0 6.246 0.161875 5.9058 0.492625C5.5656 0.823375 5.4 1.29325 5.4 1.75V2.625H0V4.375H0.9V18.375C0.9 19.8144 2.1195 21 3.6 21H14.4C15.8805 21 17.1 19.8144 17.1 18.375V4.375H18V2.625H12.6V1.75C12.6 1.29325 12.4335 0.8225 12.0933 0.49175C11.754 0.16275 11.2707 0 10.8 0H7.2ZM7.2 1.75H10.8V2.625H7.2V1.75ZM2.7 4.375H15.3V18.375C15.3 18.8606 14.8995 19.25 14.4 19.25H3.6C3.1005 19.25 2.7 18.8606 2.7 18.375V4.375ZM4.5 7V16.625H6.3V7H4.5ZM8.1 7V16.625H9.9V7H8.1ZM11.7 7V16.625H13.5V7H11.7Z" fill="white"/>
</svg>
