<svg width="258" height="44" viewBox="0 0 258 44" fill="none" xmlns="http://www.w3.org/2000/svg">
<g clip-path="url(#clip0_902_33662)">
<path d="M35.9078 22.0001C35.9078 14.3189 29.6811 8.09229 22 8.09223C14.3188 8.09223 8.09217 14.3189 8.09217 22.0001C8.09223 29.6812 14.3189 35.9079 22 35.9079V44.0001L21.4318 43.9924C9.73301 43.6959 0.304285 34.267 0.00765217 22.5682L0 22.0001C0 9.84985 9.84979 6.10352e-05 22 6.10352e-05L22.5682 0.00771321C34.4557 0.309132 44 10.0399 44 22.0001L43.9923 22.5682C43.6909 34.4558 33.9602 44 22 44.0001V35.9079C29.6811 35.9078 35.9078 29.6811 35.9078 22.0001Z" fill="#202021"/>
<path d="M28.3219 21.7472C28.3219 25.3783 25.3783 28.3219 21.7471 28.3219C18.116 28.3219 15.1724 25.3783 15.1724 21.7472C15.1724 18.1161 18.116 15.1725 21.7471 15.1725C25.3783 15.1725 28.3219 18.1161 28.3219 21.7472Z" fill="#202021"/>
<path d="M27.8158 21.7477C27.8158 18.396 25.0992 15.6787 21.7476 15.6785C18.3958 15.6785 15.6784 18.3959 15.6784 21.7477C15.6787 25.0993 18.396 27.8159 21.7476 27.8159V28.3219L21.409 28.3133C18.047 28.143 15.3513 25.4473 15.181 22.0853L15.1724 21.7477C15.1724 18.1165 18.1165 15.1725 21.7476 15.1725L22.0853 15.1811C25.5593 15.3571 28.3219 18.2299 28.3219 21.7477L28.3132 22.0853C28.1373 25.5592 25.2651 28.3217 21.7476 28.3219V27.8159C25.0991 27.8157 27.8156 25.0991 27.8158 21.7477Z" fill="#202021"/>
<path d="M20.6843 23.0856C19.0917 21.493 19.0917 18.9108 20.6843 17.3183L33.969 4.03353C35.5616 2.44094 38.1437 2.44093 39.7363 4.03353C41.3289 5.62613 41.3289 8.20824 39.7363 9.80084L26.4516 23.0856C24.859 24.6782 22.2768 24.6782 20.6843 23.0856Z" fill="#FEFEFE"/>
<path d="M40.2044 6.27641C40.2044 7.81136 38.96 9.05569 37.4251 9.05569C35.8901 9.05569 34.6458 7.81136 34.6458 6.27641C34.6458 4.74146 35.8901 3.49713 37.4251 3.49713C38.96 3.49713 40.2044 4.74146 40.2044 6.27641Z" fill="#202021"/>
</g>
<path d="M235 7.34424V36.1752C235 39.3947 232.751 40.2116 230.893 40.2116C228.742 40.2116 226.982 39.5869 226.004 38.0973L212.804 18.4442V36.5116C212.804 39.1544 210.8 40.2116 208.697 40.2116C206.399 40.2116 204.346 39.0583 204.346 36.5116V7.15204C204.346 5.66244 205.764 3.78842 208.697 3.78842C211.386 3.78842 212.657 4.46115 214.368 7.00788L226.542 25.4117V7.34424C226.542 4.89361 228.693 3.78842 230.893 3.78842C233.142 3.78842 235 4.98971 235 7.34424Z" fill="#202021"/>
<path d="M183.435 31.1777L181.088 38.0011C180.551 39.5387 178.644 40.5478 176.297 40.0192C173.804 39.2504 173.315 37.2803 173.853 35.6946L184.462 6.23895C184.902 4.94155 186.271 3.5 189.204 3.5C192.137 3.5 193.555 4.94155 193.995 6.23895L204.604 35.7907C205.387 38.0491 204.458 39.3465 202.355 39.9231C199.862 40.6439 198.151 39.6829 197.515 37.7608L195.266 31.1777H183.435ZM185.439 25.3635H193.262L189.351 13.8792L185.439 25.3635Z" fill="#202021"/>
<path d="M152.045 36.896V7.34424C152.045 4.89361 154.147 3.78842 156.347 3.78842C158.645 3.78842 160.503 4.94166 160.503 7.34424V34.2051H174.583C177.321 34.2051 178.25 35.5986 178.25 37.2804C178.25 38.6259 177.468 40.2116 174.583 40.2116H156.054C153.561 40.2116 152.045 39.0103 152.045 36.896Z" fill="#202021"/>
<path d="M130.315 26.7091V36.5116C130.315 39.1064 128.261 40.2116 126.159 40.2116C123.861 40.2116 121.808 39.0583 121.808 36.5116V6.33516C121.808 4.65335 123.226 3.78842 125.328 3.78842H136.866C145.177 3.78842 152.12 6.91178 152.12 15.0806V15.3689C152.12 23.5376 145.52 26.7091 137.257 26.7091H130.315ZM130.315 21.2312H137.257C141.217 21.2312 143.662 19.5013 143.662 15.7052V15.0325C143.662 11.3325 140.631 9.69878 136.524 9.69878H130.315V21.2312Z" fill="#202021"/>
<path d="M94.0658 30.7455C94.1147 33.4845 96.608 35.0702 100.666 35.0702C103.257 35.0702 105.702 34.0611 107.168 33.5806C108.782 33.052 110.493 32.9079 111.471 34.4455C112.253 35.6468 112.155 37.2805 110.542 38.1935C108.684 39.3948 104.968 40.5 100.47 40.5C91.719 40.5 86.2434 36.4637 85.8523 30.5533C85.7545 28.8715 85.7545 27.2858 85.8523 25.6521C85.95 20.4144 91.5724 15.8495 99.5903 15.8495C106.777 15.8495 112.791 20.03 112.791 25.604C112.791 30.0728 109.564 30.7455 106.288 30.7455H94.0658ZM103.502 25.604C104.626 25.604 104.968 25.5559 104.968 24.9793C104.968 22.9612 102.621 21.3755 99.5414 21.3755C96.608 21.3755 94.0658 22.7209 94.0658 24.8352V25.604H103.502Z" fill="#202021"/>
<path d="M68.4091 25.1234V36.5116C68.4091 39.1064 66.209 40.2116 64.2534 40.2116C62.2978 40.2116 60 39.1064 60 36.5116V6.52737C60 4.65335 61.1734 3.78842 62.8845 3.78842H73.8358C81.3649 3.78842 88.0139 6.0949 88.0139 14.1195C88.0139 19.7896 84.2494 23.0571 80.5337 24.2104L86.8894 34.4454C88.1117 36.3194 87.965 38.5298 85.8627 39.683C83.5649 40.9323 81.3649 39.9713 80.2893 38.2415L72.3202 25.1234H68.4091ZM68.4091 19.3572H73.6403C77.307 19.3572 79.7026 18.1559 79.7026 14.552C79.7026 10.9001 77.3559 9.69877 73.6403 9.69877H68.4091V19.3572Z" fill="#202021"/>
<defs>
<clipPath id="clip0_902_33662">
<rect width="44" height="44" fill="white"/>
</clipPath>
</defs>
</svg>
