<svg width="19" height="19" viewBox="0 0 19 19" fill="none" xmlns="http://www.w3.org/2000/svg">
<path d="M3.14829 9.44444C3.14814 10.7909 3.5796 12.1019 4.37934 13.185C5.17908 14.2682 6.30498 15.0665 7.59178 15.4627C8.87858 15.8589 10.2585 15.8322 11.529 15.3864C12.7995 14.9407 13.8936 14.0994 14.6508 12.9861H12.5927V11.412H17.315V16.1343H15.7409V14.1674C15.0086 15.1457 14.0581 15.9395 12.965 16.4859C11.872 17.0323 10.6666 17.3161 9.44459 17.3148C5.09778 17.3148 1.57422 13.7912 1.57422 9.44444H3.14829ZM9.44459 1.57407C13.7914 1.57407 17.315 5.09763 17.315 9.44444H15.7409C15.741 8.09802 15.3096 6.78702 14.5098 5.70385C13.7101 4.62069 12.5842 3.82242 11.2974 3.42621C10.0106 3.03 8.63068 3.05672 7.36019 3.50245C6.08969 3.94819 4.99554 4.78945 4.23834 5.90277H6.29644V7.47684H1.57422V2.75462H3.14829V4.72143C3.88105 3.74365 4.83161 2.95011 5.92455 2.40378C7.01749 1.85745 8.22271 1.57336 9.44459 1.57407Z" fill="white"/>
</svg>
