<svg width="20" height="20" viewBox="0 0 20 20" fill="none" xmlns="http://www.w3.org/2000/svg">
<path d="M4.65912 17H15.3409C16.3609 17 17 16.2592 17 15.326C17.0012 15.0371 16.9261 14.753 16.7824 14.503L11.4314 4.84386C11.1253 4.28802 10.5677 4 10.0035 4C9.44589 4 8.87496 4.28802 8.5686 4.84386L3.22454 14.5097C3.07485 14.7702 3 15.0448 3 15.3263C3 16.2592 3.64607 17 4.65912 17ZM10.0035 12.3007C9.64316 12.3007 9.44589 12.0949 9.43225 11.7247L9.3371 8.33577C9.32346 7.96521 9.60893 7.69066 9.99651 7.69066C10.3774 7.69066 10.6765 7.97195 10.6629 8.3425L10.5611 11.7247C10.5474 12.1019 10.3502 12.3007 10.0035 12.3007ZM10.0035 14.8323C9.60893 14.8323 9.24194 14.5167 9.24194 14.0911C9.24194 13.6656 9.60225 13.3506 10.0035 13.3506C10.4047 13.3506 10.765 13.6591 10.765 14.0911C10.765 14.5235 10.3977 14.8323 10.0035 14.8323Z" fill="white"/>
</svg>
