<svg width="20" height="20" viewBox="0 0 20 20" fill="none" xmlns="http://www.w3.org/2000/svg">
<path fill-rule="evenodd" clip-rule="evenodd" d="M10.0003 1.6665C5.39797 1.6665 1.66699 5.39748 1.66699 9.99982C1.66699 14.6022 5.39797 18.3332 10.0003 18.3332C14.6027 18.3332 18.3337 14.6022 18.3337 9.99982C18.3337 5.39748 14.6027 1.6665 10.0003 1.6665ZM10.0003 16.6665C6.32434 16.6665 3.33367 13.6758 3.33367 9.99982C3.33367 6.32381 6.3243 3.33318 10.0003 3.33318C13.6763 3.33318 16.667 6.32381 16.667 9.99982C16.667 13.6758 13.6763 16.6665 10.0003 16.6665ZM13.1384 7.02252L14.3168 8.20092L9.16699 13.3723L6.07781 10.2831L7.25617 9.10475L9.16699 11.0156L13.1384 7.02252Z" fill="white"/>
</svg>
